<svg width="111" height="126" viewBox="0 0 111 126" fill="none" xmlns="http://www.w3.org/2000/svg">
<path d="M10.054 112.771L0 0H110.48L100.416 112.754L55.173 125.297L10.054 112.771V112.771Z" fill="#1572B6"/>
<path d="M55.241 115.71L91.8 105.574L100.401 9.22H55.241V115.71Z" fill="#33A9DC"/>
<path d="M55.241 50.077H73.543L74.807 35.914H55.241V22.083H89.923L89.591 25.794L86.191 63.908H55.241V50.077Z" fill="white"/>
<path d="M55.323 85.997L55.262 86.015L39.859 81.856L38.874 70.825H24.992L26.929 92.542L55.26 100.405L55.323 100.387V85.997V85.997Z" fill="#EBEBEB"/>
<path d="M72.367 63.323L70.701 81.845L55.275 86.009V100.399L83.629 92.541L83.837 90.204L86.243 63.323H72.367Z" fill="white"/>
<path d="M55.288 22.083V35.914H21.88L21.603 32.806L20.973 25.794L20.642 22.083H55.288V22.083ZM55.241 50.079V63.91H40.032L39.755 60.802L39.124 53.79L38.794 50.079H55.241V50.079Z" fill="#EBEBEB"/>
</svg>
