<svg width="110" height="125" viewBox="0 0 110 125" fill="none" xmlns="http://www.w3.org/2000/svg">
<path d="M10.005 112.215L0 0H109.936L99.92 112.198L54.901 124.678L10.005 112.215Z" fill="#E44D26"/>
<path d="M54.968 115.139L91.346 105.053L99.905 9.17499H54.968V115.139Z" fill="#F16529"/>
<path d="M54.968 50.794H36.756L35.498 36.7H54.968V22.938H20.457L20.787 26.63L24.169 64.557H54.968V50.794ZM54.968 86.537L54.907 86.554L39.58 82.414L38.601 71.439H24.784L26.712 93.048L54.905 100.874L54.968 100.857V86.537Z" fill="#EBEBEB"/>
<path d="M54.92 50.794V64.557H71.867L70.27 82.406L54.92 86.549V100.868L83.135 93.048L83.342 90.723L86.576 54.49L86.911 50.794H83.203H54.92ZM54.92 22.938V36.7H88.164L88.44 33.608L89.068 26.63L89.397 22.938H54.92Z" fill="white"/>
</svg>
